<svg width="147" height="166" viewBox="0 0 147 166" fill="none" xmlns="http://www.w3.org/2000/svg">
<path fill-rule="evenodd" clip-rule="evenodd" d="M53.2677 40.0744C53.8921 38.9692 54.5772 38.1229 55.0657 37.6435C55.1578 38.7891 55.0708 39.8314 54.8687 40.7639C55.8001 41.2667 56.7431 41.9672 57.6271 42.9278C56.8871 42.9634 55.6753 42.8762 54.3138 42.5197C53.5625 44.2978 52.4406 45.4815 51.7092 45.9941C51.6552 44.4996 51.9613 43.0955 52.426 41.8668C51.3093 41.3779 50.1891 40.6852 49.2184 39.7193C50.048 39.5401 51.5617 39.5135 53.2677 40.0744Z" fill="url(#paint0_linear_11_46)"/>
<path fill-rule="evenodd" clip-rule="evenodd" d="M47.245 27.0697C47.7524 25.4899 48.5867 24.2122 49.0657 23.6435C49.0278 25.1508 48.62 26.4184 48.1364 27.3795C48.9428 27.7099 49.8048 28.2043 50.6271 28.9278C50.0085 28.8989 48.862 28.717 47.6273 28.2524C47.3325 28.6902 47.0462 29.0141 46.8281 29.2106C46.8534 28.7957 46.9128 28.388 46.9975 27.9927C46.3196 27.6876 45.6375 27.2931 45.0213 26.7888C45.4816 26.7468 46.2886 26.7953 47.245 27.0697Z" fill="url(#paint1_linear_11_46)"/>
<path fill-rule="evenodd" clip-rule="evenodd" d="M34.2677 11.0743C34.8922 9.9692 35.5772 9.12288 36.0657 8.64345C36.1578 9.78911 36.0708 10.8314 35.8687 11.7639C36.8001 12.2667 37.7431 12.9672 38.6271 13.9278C37.8871 13.9634 36.6753 13.8762 35.3138 13.5197C34.5625 15.2978 33.4406 16.4815 32.7093 16.9941C32.6552 15.4996 32.9613 14.0955 33.426 12.8668C32.3093 12.3779 31.1891 11.6852 30.2184 10.7193C31.048 10.5401 32.5617 10.5135 34.2677 11.0743Z" fill="url(#paint2_linear_11_46)"/>
<path fill-rule="evenodd" clip-rule="evenodd" d="M31.2805 43.3117C32.2566 41.195 33.3533 39.5297 34.0657 38.6435C33.9642 40.642 33.5826 42.452 33.0618 44.0359C34.5555 44.7265 36.1165 45.6657 37.6271 46.9278C36.5048 46.8496 34.5674 46.5296 32.3799 45.8243C31.3306 48.2305 30.0362 49.9216 29.2175 50.7056C29.3831 48.7449 29.8808 46.8497 30.5158 45.1462C28.8115 44.452 27.055 43.521 25.4812 42.2933C26.6232 42.2242 28.7723 42.4271 31.2805 43.3117Z" fill="url(#paint3_linear_11_46)"/>
<circle r="1" transform="matrix(0.934294 0.356503 -0.372941 0.927855 37.5614 29.2843)" fill="#2F235A"/>
<circle r="1" transform="matrix(0.934294 0.356503 -0.372941 0.927855 58.5614 19.2843)" fill="#FE9076"/>
<circle r="1" transform="matrix(0.934294 0.356503 -0.372941 0.927855 17.5614 23.2843)" fill="#FFA400"/>
<circle r="1" transform="matrix(0.934294 0.356503 -0.372941 0.927855 35.5614 57.2843)" fill="#23BB86"/>
<path d="M57.2706 15.2785C56.4378 12.0525 53.4017 4.68217 47.9199 1.00891" stroke="#FE9076" stroke-width="0.736823" stroke-linecap="round"/>
<path d="M15.539 19.9854C13.4189 17.3729 7.5468 11.8616 1.01834 10.7163" stroke="#FFA400" stroke-width="0.736823" stroke-linecap="round"/>
<path d="M32 58C30.2335 58.6636 25.781 60.7637 22.1035 63.8552" stroke="#23BB86" stroke-width="0.736823" stroke-linecap="round"/>
<path fill-rule="evenodd" clip-rule="evenodd" d="M93.7323 40.0744C93.1079 38.9693 92.4228 38.1229 91.9343 37.6435C91.8422 38.7892 91.9293 39.8315 92.1313 40.7639C91.1999 41.2667 90.2569 41.9672 89.3729 42.9279C90.1129 42.9635 91.3247 42.8762 92.6862 42.5197C93.4375 44.2979 94.5595 45.4815 95.2908 45.9942C95.3449 44.4997 95.0387 43.0956 94.574 41.8668C95.6907 41.3779 96.8109 40.6853 97.7816 39.7193C96.9521 39.5401 95.4384 39.5136 93.7323 40.0744Z" fill="url(#paint4_linear_11_46)"/>
<path fill-rule="evenodd" clip-rule="evenodd" d="M99.755 27.0697C99.2476 25.49 98.4133 24.2123 97.9343 23.6435C97.9722 25.1509 98.38 26.4184 98.8636 27.3795C98.0572 27.71 97.1952 28.2043 96.3729 28.9279C96.9915 28.899 98.138 28.717 99.3727 28.2524C99.6675 28.6903 99.9538 29.0142 100.172 29.2107C100.147 28.7958 100.087 28.388 100.003 27.9928C100.68 27.6876 101.362 27.2932 101.979 26.7888C101.518 26.7468 100.711 26.7954 99.755 27.0697Z" fill="url(#paint5_linear_11_46)"/>
<path fill-rule="evenodd" clip-rule="evenodd" d="M112.732 11.0744C112.108 9.96925 111.423 9.12294 110.934 8.64351C110.842 9.78916 110.929 10.8314 111.131 11.7639C110.2 12.2667 109.257 12.9672 108.373 13.9279C109.113 13.9635 110.325 13.8762 111.686 13.5197C112.438 15.2979 113.559 16.4815 114.291 16.9942C114.345 15.4997 114.039 14.0956 113.574 12.8668C114.691 12.3779 115.811 11.6852 116.782 10.7193C115.952 10.5401 114.438 10.5136 112.732 11.0744Z" fill="url(#paint6_linear_11_46)"/>
<path fill-rule="evenodd" clip-rule="evenodd" d="M115.72 43.3117C114.743 41.195 113.647 39.5298 112.934 38.6435C113.036 40.642 113.417 42.452 113.938 44.036C112.444 44.7266 110.884 45.6658 109.373 46.9279C110.495 46.8497 112.433 46.5296 114.62 45.8243C115.669 48.2305 116.964 49.9216 117.783 50.7056C117.617 48.745 117.119 46.8497 116.484 45.1463C118.188 44.4521 119.945 43.521 121.519 42.2933C120.377 42.2243 118.228 42.4271 115.72 43.3117Z" fill="url(#paint7_linear_11_46)"/>
<circle r="1" transform="matrix(-0.934294 0.356503 0.372941 0.927855 109.439 29.2844)" fill="#2F235A"/>
<circle r="1" transform="matrix(-0.934294 0.356503 0.372941 0.927855 88.4386 19.2844)" fill="#FE9076"/>
<circle r="1" transform="matrix(-0.934294 0.356503 0.372941 0.927855 129.439 23.2844)" fill="#FFA400"/>
<circle r="1" transform="matrix(-0.934294 0.356503 0.372941 0.927855 111.439 57.2844)" fill="#23BB86"/>
<path d="M89.7294 15.2786C90.5622 12.0525 93.5983 4.68222 99.0801 1.00896" stroke="#FE9076" stroke-width="0.736823" stroke-linecap="round"/>
<path d="M131.461 19.9855C133.581 17.373 139.453 11.8617 145.982 10.7164" stroke="#FFA400" stroke-width="0.736823" stroke-linecap="round"/>
<path d="M115 58C116.767 58.6636 121.219 60.7637 124.897 63.8552" stroke="#23BB86" stroke-width="0.736823" stroke-linecap="round"/>
<rect x="28" y="104" width="90" height="62" fill="url(#paint8_linear_11_46)"/>
<mask id="mask0_11_46" style="mask-type:alpha" maskUnits="userSpaceOnUse" x="28" y="104" width="90" height="62">
<rect x="28" y="104" width="90" height="62" fill="#C4C4C4"/>
</mask>
<g mask="url(#mask0_11_46)">
<path d="M32 102H93L79 126H18L32 102Z" fill="black" fill-opacity="0.07"/>
<rect x="89" y="104" width="90" height="62" fill="url(#paint9_linear_11_46)"/>
</g>
<path d="M28 104H89L77 124H16L28 104Z" fill="url(#paint10_linear_11_46)"/>
<mask id="mask1_11_46" style="mask-type:alpha" maskUnits="userSpaceOnUse" x="89" y="104" width="29" height="62">
<rect x="89" y="104" width="29" height="62" fill="#C4C4C4"/>
</mask>
<g mask="url(#mask1_11_46)">
<path d="M114 104H85L99 127H128L114 104Z" fill="black" fill-opacity="0.07"/>
</g>
<path d="M118 104H89L101 124H130L118 104Z" fill="url(#paint11_linear_11_46)"/>
<circle cx="59.5" cy="86.5" r="8.5" fill="url(#paint12_linear_11_46)"/>
<circle cx="86" cy="75" r="8" fill="url(#paint13_linear_11_46)"/>
<circle cx="68.5" cy="54.5" r="6.5" fill="url(#paint14_linear_11_46)"/>
<circle cx="90.5" cy="53.5" r="1.5" fill="#FFA800" fill-opacity="0.23"/>
<circle cx="79.5" cy="90.5" r="1.5" fill="#FFA800" fill-opacity="0.23"/>
<circle cx="52.5" cy="65.5" r="1.5" fill="#FFA800" fill-opacity="0.23"/>
<path d="M118 104H28L14 19H135L118 104Z" fill="url(#paint15_linear_11_46)"/>
<defs>
<linearGradient id="paint0_linear_11_46" x1="54.2089" y1="37.8863" x2="51.1968" y2="45.7802" gradientUnits="userSpaceOnUse">
<stop stop-color="#FFE89E"/>
<stop offset="1" stop-color="#FFBF1A"/>
</linearGradient>
<linearGradient id="paint1_linear_11_46" x1="49.1526" y1="25.0556" x2="47.1445" y2="30.3183" gradientUnits="userSpaceOnUse">
<stop stop-color="#FFE89E"/>
<stop offset="1" stop-color="#FFBF1A"/>
</linearGradient>
<linearGradient id="paint2_linear_11_46" x1="35.2089" y1="8.88625" x2="32.1968" y2="16.7802" gradientUnits="userSpaceOnUse">
<stop stop-color="#FFE89E"/>
<stop offset="1" stop-color="#FFBF1A"/>
</linearGradient>
<linearGradient id="paint3_linear_11_46" x1="33.3752" y1="40.1009" x2="29.0243" y2="51.5033" gradientUnits="userSpaceOnUse">
<stop stop-color="#FFE89E"/>
<stop offset="1" stop-color="#FFBF1A"/>
</linearGradient>
<linearGradient id="paint4_linear_11_46" x1="92.7911" y1="37.8863" x2="95.8032" y2="45.7803" gradientUnits="userSpaceOnUse">
<stop stop-color="#FFE89E"/>
<stop offset="1" stop-color="#FFBF1A"/>
</linearGradient>
<linearGradient id="paint5_linear_11_46" x1="97.8474" y1="25.0557" x2="99.8555" y2="30.3183" gradientUnits="userSpaceOnUse">
<stop stop-color="#FFE89E"/>
<stop offset="1" stop-color="#FFBF1A"/>
</linearGradient>
<linearGradient id="paint6_linear_11_46" x1="111.791" y1="8.88632" x2="114.803" y2="16.7803" gradientUnits="userSpaceOnUse">
<stop stop-color="#FFE89E"/>
<stop offset="1" stop-color="#FFBF1A"/>
</linearGradient>
<linearGradient id="paint7_linear_11_46" x1="113.625" y1="40.101" x2="117.976" y2="51.5033" gradientUnits="userSpaceOnUse">
<stop stop-color="#FFE89E"/>
<stop offset="1" stop-color="#FFBF1A"/>
</linearGradient>
<linearGradient id="paint8_linear_11_46" x1="58.0642" y1="92.5213" x2="22.4118" y2="191.057" gradientUnits="userSpaceOnUse">
<stop stop-color="#FFD481"/>
<stop offset="1" stop-color="#FA620C"/>
</linearGradient>
<linearGradient id="paint9_linear_11_46" x1="43.1517" y1="100.068" x2="151.613" y2="216.373" gradientUnits="userSpaceOnUse">
<stop stop-color="#FFD481"/>
<stop offset="0.83311" stop-color="#FA620C"/>
</linearGradient>
<linearGradient id="paint10_linear_11_46" x1="29.0775" y1="96.8519" x2="26.0878" y2="139.46" gradientUnits="userSpaceOnUse">
<stop stop-color="#FFD481"/>
<stop offset="1" stop-color="#FA620C"/>
</linearGradient>
<linearGradient id="paint11_linear_11_46" x1="122.655" y1="96.8519" x2="127.922" y2="139.012" gradientUnits="userSpaceOnUse">
<stop stop-color="#FFD481"/>
<stop offset="1" stop-color="#FA620C"/>
</linearGradient>
<linearGradient id="paint12_linear_11_46" x1="60.1436" y1="75.1947" x2="58.5268" y2="98.1383" gradientUnits="userSpaceOnUse">
<stop stop-color="#FF9F81"/>
<stop offset="1" stop-color="#F53838"/>
</linearGradient>
<linearGradient id="paint13_linear_11_46" x1="86.6058" y1="64.3597" x2="85.0841" y2="85.9537" gradientUnits="userSpaceOnUse">
<stop stop-color="#FF9F81"/>
<stop offset="1" stop-color="#F53838"/>
</linearGradient>
<linearGradient id="paint14_linear_11_46" x1="68.9922" y1="45.8548" x2="67.7558" y2="63.3999" gradientUnits="userSpaceOnUse">
<stop stop-color="#FF9F81"/>
<stop offset="1" stop-color="#F53838"/>
</linearGradient>
<linearGradient id="paint15_linear_11_46" x1="73.5057" y1="19" x2="73.5057" y2="199.585" gradientUnits="userSpaceOnUse">
<stop stop-color="white" stop-opacity="0"/>
<stop offset="1" stop-color="#FE9277"/>
</linearGradient>
</defs>
</svg>
