<svg width="24" height="24" viewBox="0 0 24 24" fill="none" xmlns="http://www.w3.org/2000/svg">
<path d="M10 17C9.87306 17.0003 10.1173 17.0491 10 17C9.88268 16.9509 9.08977 17.0909 9.00001 17L5.00001 13C4.90758 12.9097 5.05077 12.1195 5.00001 12C4.94924 11.8805 5.00121 12.1301 5.00001 12C4.9988 11.8699 4.95146 11.1204 5.00001 11C5.04855 10.8796 4.90927 11.092 5.00001 11C5.09074 10.908 5.88119 11.0493 6.00001 11C6.11882 10.9507 5.8716 10.999 6.00001 11C6.12841 11.001 5.88198 10.9487 6.00001 11C6.11803 11.0513 6.91073 10.9065 7.00001 11L10 15L16 8C16.1813 7.81617 16.7435 8.00009 17 8C17.2565 7.99991 17.8185 7.8163 18 8C18.1815 8.1837 17.9999 8.74012 18 9C18.0001 9.25988 18.1813 9.81617 18 10L11 17C10.9102 17.0909 10.1173 16.9509 10 17C9.88268 17.0491 10.1269 17.0003 10 17V17Z" fill="#2FAB73"/>
</svg>
