<svg width="37" height="36" viewBox="0 0 37 36" fill="none" xmlns="http://www.w3.org/2000/svg">
<path d="M32 14V14C31.9982 13.9988 32.0009 14.0019 32 14L19 0L4.99998 14C4.99844 14.0016 4.99998 14 4.99998 14V14C2.94545 16.1298 1.34797 18.0178 0.999984 21C0.652003 23.9822 1.49401 27.4286 2.99998 30C4.50597 32.5714 7.27795 33.9287 9.99998 35C12.722 36.0713 15.2149 35.8826 18 35C18.2344 34.9261 18.7656 34.9261 19 35C21.7848 35.8822 24.2781 36.0714 27 35C29.7218 33.9286 32.4941 32.5712 34 30C35.5059 27.4288 36.3478 23.982 36 21C35.6521 18.018 34.0543 16.1298 32 14ZM9.99998 22C9.93458 22.0674 10.0354 22.912 9.99998 23C9.96459 23.088 9.99997 22.9047 9.99998 23C10.0239 25.4446 9.75566 27.9188 11 30C11.0282 30.0472 12.004 29.9447 12 30C11.996 30.0553 11.0348 29.9576 11 30C10.9652 30.0424 11.0522 29.9868 11 30C10.9477 30.0132 11.0498 30.0209 11 30C10.0645 29.5944 9.71663 28.7406 8.99998 28C7.53134 26.4858 6.00132 25.1413 5.99998 23C5.99865 20.8587 7.53321 18.5161 8.99998 17L19 7L28 17C29.467 18.5159 31.0014 20.8586 31 23C30.9988 25.1413 29.4687 26.4858 28 28C27.2833 28.7406 26.9353 29.5944 26 30C25.95 30.0209 26.0522 30.0132 26 30C25.9478 29.9868 26.0349 30.0422 26 30C25.9653 29.9576 25.004 30.0554 25 30C24.996 29.9447 25.9717 30.0472 26 30C27.2446 27.919 26.9757 25.4446 27 23C27 22.9047 27.0355 23.0882 27 23C26.9644 22.9118 27.0656 22.0674 27 22L23 18C22.954 17.9605 22.0598 17 22 17C21.9403 17 22.0458 17.9605 22 18C21.954 18.0393 22.0107 17.9394 22 18C21.9892 18.0606 21.9705 17.9463 22 18C23.7907 21.3406 22.568 25.3524 20 28V28C19.6455 28.3614 19.4985 29.0002 19 29C18.5014 28.9998 17.3542 28.3616 17 28V28C14.4311 25.3524 13.2089 21.3404 15 18C15.0294 17.9463 15.0107 18.0606 15 18C14.9893 17.9394 15.0459 18.0393 15 18C14.9541 17.9605 15.0598 17 15 17C14.9402 17 14.0459 17.9605 14 18L9.99998 22Z" fill="#F53838"/>
</svg>
