<svg width="55" height="55" viewBox="0 0 55 55" fill="none" xmlns="http://www.w3.org/2000/svg">
<rect width="55" height="55" rx="27.5" fill="#FFECEC"/>
<path d="M35 25C35 24.0807 34.3518 22.8493 34 22C33.6482 21.1507 33.65 20.65 33 20C32.35 19.35 31.8493 19.3518 31 19C30.1507 18.6482 28.9193 18 28 18C27.0807 18 25.8493 18.6482 25 19C24.1507 19.3518 23.65 19.35 23 20C22.35 20.65 22.3518 21.1507 22 22C21.6482 22.8493 21 24.0807 21 25C21 26.387 21.305 27.912 22 29V29C24.36 32.695 28 38 28 38L34 29V29C34.7204 27.8764 34.9995 26.3347 35 25V25ZM28 28C27.2044 28 26.5626 27.5626 26 27C25.4374 26.4374 25 25.7956 25 25C25 24.2044 25.4374 23.5626 26 23C26.5626 22.4374 27.2044 22 28 22C28.7956 22 29.4374 22.4374 30 23C30.5626 23.5626 31 24.2044 31 25C31 25.7956 30.5626 26.4374 30 27C29.4374 27.5626 28.7956 28 28 28Z" fill="#F53838"/>
</svg>
