<svg width="150" height="36" viewBox="0 0 150 36" fill="none" xmlns="http://www.w3.org/2000/svg">
<path d="M48.04 25C47.9067 25 47.7933 24.9533 47.7 24.86C47.6067 24.7667 47.56 24.6533 47.56 24.52V11.48C47.56 11.3333 47.6067 11.22 47.7 11.14C47.7933 11.0467 47.9067 11 48.04 11H49.9C50.0467 11 50.16 11.0467 50.24 11.14C50.3333 11.22 50.38 11.3333 50.38 11.48V22.62H56.72C56.8667 22.62 56.9867 22.6667 57.08 22.76C57.1733 22.8533 57.22 22.9733 57.22 23.12V24.52C57.22 24.6667 57.1733 24.7867 57.08 24.88C56.9867 24.96 56.8667 25 56.72 25H48.04ZM61.9416 25.2C61.2616 25.2 60.6349 25.0667 60.0616 24.8C59.5016 24.52 59.0549 24.1467 58.7216 23.68C58.4016 23.2133 58.2416 22.7 58.2416 22.14C58.2416 21.2333 58.6082 20.5 59.3416 19.94C60.0749 19.38 61.0816 19 62.3616 18.8L65.1016 18.4V17.98C65.1016 17.3933 64.9549 16.9533 64.6616 16.66C64.3682 16.3667 63.8949 16.22 63.2416 16.22C62.8016 16.22 62.4416 16.3067 62.1616 16.48C61.8949 16.64 61.6816 16.8 61.5216 16.96C61.3616 17.1333 61.2549 17.2467 61.2016 17.3C61.1482 17.46 61.0482 17.54 60.9016 17.54H59.3616C59.2416 17.54 59.1349 17.5 59.0416 17.42C58.9616 17.34 58.9216 17.2333 58.9216 17.1C58.9349 16.7667 59.0949 16.3867 59.4016 15.96C59.7216 15.5333 60.2082 15.1667 60.8616 14.86C61.5149 14.5533 62.3149 14.4 63.2616 14.4C64.8349 14.4 65.9816 14.7533 66.7016 15.46C67.4216 16.1667 67.7816 17.0933 67.7816 18.24V24.52C67.7816 24.6533 67.7349 24.7667 67.6416 24.86C67.5616 24.9533 67.4482 25 67.3016 25H65.6816C65.5482 25 65.4349 24.9533 65.3416 24.86C65.2482 24.7667 65.2016 24.6533 65.2016 24.52V23.74C64.9082 24.1667 64.4882 24.52 63.9416 24.8C63.4082 25.0667 62.7416 25.2 61.9416 25.2ZM62.6216 23.3C63.3549 23.3 63.9549 23.06 64.4216 22.58C64.8882 22.1 65.1216 21.4 65.1216 20.48V20.06L63.1216 20.38C62.3482 20.5 61.7616 20.6933 61.3616 20.96C60.9749 21.2267 60.7816 21.5533 60.7816 21.94C60.7816 22.3667 60.9616 22.7 61.3216 22.94C61.6816 23.18 62.1149 23.3 62.6216 23.3ZM74.2873 25.2C73.2873 25.2 72.4473 25.0533 71.7673 24.76C71.0873 24.4533 70.5807 24.1 70.2473 23.7C69.9273 23.2867 69.7673 22.9333 69.7673 22.64C69.7673 22.5067 69.814 22.4 69.9073 22.32C70.0007 22.24 70.1073 22.2 70.2273 22.2H71.8073C71.9273 22.2 72.0273 22.2467 72.1073 22.34C72.1607 22.38 72.3007 22.5 72.5273 22.7C72.754 22.9133 73.0207 23.08 73.3273 23.2C73.634 23.32 73.974 23.38 74.3473 23.38C74.8807 23.38 75.3207 23.2733 75.6673 23.06C76.014 22.8467 76.1873 22.5533 76.1873 22.18C76.1873 21.9 76.1073 21.6733 75.9473 21.5C75.8007 21.3267 75.5273 21.1733 75.1273 21.04C74.7273 20.8933 74.134 20.74 73.3473 20.58C72.214 20.34 71.374 19.9733 70.8273 19.48C70.294 18.9867 70.0273 18.3333 70.0273 17.52C70.0273 16.9867 70.1873 16.4867 70.5073 16.02C70.8273 15.54 71.3007 15.1533 71.9273 14.86C72.5673 14.5533 73.3273 14.4 74.2073 14.4C75.1007 14.4 75.874 14.5467 76.5273 14.84C77.1807 15.12 77.674 15.46 78.0073 15.86C78.354 16.2467 78.5273 16.5933 78.5273 16.9C78.5273 17.02 78.4807 17.1267 78.3873 17.22C78.3073 17.3 78.2073 17.34 78.0873 17.34H76.6073C76.5007 17.34 76.3873 17.2933 76.2673 17.2C76.174 17.1333 76.0273 17.0067 75.8273 16.82C75.6273 16.6333 75.394 16.4867 75.1273 16.38C74.8607 16.2733 74.5473 16.22 74.1873 16.22C73.694 16.22 73.3073 16.3267 73.0273 16.54C72.7607 16.7533 72.6273 17.0333 72.6273 17.38C72.6273 17.6333 72.694 17.84 72.8273 18C72.9607 18.16 73.2207 18.3133 73.6073 18.46C73.994 18.6067 74.574 18.7533 75.3473 18.9C76.6273 19.1533 77.5407 19.5467 78.0873 20.08C78.6473 20.6133 78.9273 21.2667 78.9273 22.04C78.9273 22.9733 78.5207 23.7333 77.7073 24.32C76.894 24.9067 75.754 25.2 74.2873 25.2ZM81.4919 25C81.3585 25 81.2452 24.9533 81.1519 24.86C81.0585 24.7667 81.0119 24.6533 81.0119 24.52V11.28C81.0119 11.1333 81.0585 11.02 81.1519 10.94C81.2452 10.8467 81.3585 10.8 81.4919 10.8H83.1519C83.2985 10.8 83.4119 10.8467 83.4919 10.94C83.5852 11.02 83.6319 11.1333 83.6319 11.28V24.52C83.6319 24.6533 83.5852 24.7667 83.4919 24.86C83.4119 24.9533 83.2985 25 83.1519 25H81.4919ZM90.7648 25.2C89.2848 25.2 88.1048 24.7733 87.2248 23.92C86.3582 23.0533 85.8982 21.84 85.8448 20.28L85.8248 19.78L85.8448 19.28C85.9115 17.76 86.3782 16.5667 87.2448 15.7C88.1248 14.8333 89.2982 14.4 90.7648 14.4C92.3382 14.4 93.5515 14.88 94.4048 15.84C95.2715 16.8 95.7048 18.08 95.7048 19.68V20.1C95.7048 20.2333 95.6582 20.3467 95.5648 20.44C95.4715 20.5333 95.3515 20.58 95.2048 20.58H88.5648V20.74C88.5915 21.4733 88.7915 22.0933 89.1648 22.6C89.5515 23.0933 90.0782 23.34 90.7448 23.34C91.5315 23.34 92.1648 23.0333 92.6448 22.42C92.7648 22.2733 92.8582 22.18 92.9248 22.14C93.0048 22.1 93.1182 22.08 93.2648 22.08H94.9848C95.1048 22.08 95.2048 22.12 95.2848 22.2C95.3782 22.2667 95.4248 22.3533 95.4248 22.46C95.4248 22.78 95.2315 23.16 94.8448 23.6C94.4715 24.0267 93.9315 24.4 93.2248 24.72C92.5182 25.04 91.6982 25.2 90.7648 25.2ZM92.9848 18.9V18.84C92.9848 18.0533 92.7848 17.42 92.3848 16.94C91.9982 16.46 91.4582 16.22 90.7648 16.22C90.0715 16.22 89.5315 16.46 89.1448 16.94C88.7582 17.42 88.5648 18.0533 88.5648 18.84V18.9H92.9848ZM101.768 25.2C100.768 25.2 99.9278 25.0533 99.2478 24.76C98.5678 24.4533 98.0611 24.1 97.7278 23.7C97.4078 23.2867 97.2478 22.9333 97.2478 22.64C97.2478 22.5067 97.2945 22.4 97.3878 22.32C97.4811 22.24 97.5878 22.2 97.7078 22.2H99.2878C99.4078 22.2 99.5078 22.2467 99.5878 22.34C99.6411 22.38 99.7811 22.5 100.008 22.7C100.234 22.9133 100.501 23.08 100.808 23.2C101.114 23.32 101.454 23.38 101.828 23.38C102.361 23.38 102.801 23.2733 103.148 23.06C103.494 22.8467 103.668 22.5533 103.668 22.18C103.668 21.9 103.588 21.6733 103.428 21.5C103.281 21.3267 103.008 21.1733 102.608 21.04C102.208 20.8933 101.614 20.74 100.828 20.58C99.6945 20.34 98.8545 19.9733 98.3078 19.48C97.7745 18.9867 97.5078 18.3333 97.5078 17.52C97.5078 16.9867 97.6678 16.4867 97.9878 16.02C98.3078 15.54 98.7811 15.1533 99.4078 14.86C100.048 14.5533 100.808 14.4 101.688 14.4C102.581 14.4 103.354 14.5467 104.008 14.84C104.661 15.12 105.154 15.46 105.488 15.86C105.834 16.2467 106.008 16.5933 106.008 16.9C106.008 17.02 105.961 17.1267 105.868 17.22C105.788 17.3 105.688 17.34 105.568 17.34H104.088C103.981 17.34 103.868 17.2933 103.748 17.2C103.654 17.1333 103.508 17.0067 103.308 16.82C103.108 16.6333 102.874 16.4867 102.608 16.38C102.341 16.2733 102.028 16.22 101.668 16.22C101.174 16.22 100.788 16.3267 100.508 16.54C100.241 16.7533 100.108 17.0333 100.108 17.38C100.108 17.6333 100.174 17.84 100.308 18C100.441 18.16 100.701 18.3133 101.088 18.46C101.474 18.6067 102.054 18.7533 102.828 18.9C104.108 19.1533 105.021 19.5467 105.568 20.08C106.128 20.6133 106.408 21.2667 106.408 22.04C106.408 22.9733 106.001 23.7333 105.188 24.32C104.374 24.9067 103.234 25.2 101.768 25.2ZM112.552 25C112.126 25 111.852 24.8 111.732 24.4L107.652 11.6L107.612 11.42C107.612 11.3133 107.652 11.22 107.732 11.14C107.826 11.0467 107.932 11 108.052 11H110.532C110.719 11 110.872 11.0533 110.992 11.16C111.126 11.2667 111.212 11.3867 111.252 11.52L114.092 20.76L116.912 11.52C116.952 11.3867 117.032 11.2667 117.152 11.16C117.286 11.0533 117.446 11 117.632 11H120.132C120.239 11 120.332 11.0467 120.412 11.14C120.506 11.22 120.552 11.3133 120.552 11.42L120.512 11.6L116.432 24.4C116.312 24.8 116.039 25 115.612 25H112.552ZM122.92 25C122.786 25 122.666 24.9533 122.56 24.86C122.466 24.7533 122.42 24.6333 122.42 24.5V11.5C122.42 11.3533 122.466 11.2333 122.56 11.14C122.666 11.0467 122.786 11 122.92 11H128.52C130.226 11 131.566 11.3933 132.54 12.18C133.526 12.9667 134.02 14.1133 134.02 15.62C134.02 17.1133 133.533 18.24 132.56 19C131.586 19.7467 130.24 20.12 128.52 20.12H126.14V24.5C126.14 24.6467 126.086 24.7667 125.98 24.86C125.886 24.9533 125.766 25 125.62 25H122.92ZM128.42 17.36C129.006 17.36 129.466 17.2133 129.8 16.92C130.133 16.6133 130.3 16.1667 130.3 15.58C130.3 15.0333 130.14 14.6 129.82 14.28C129.513 13.9467 129.046 13.78 128.42 13.78H126.08V17.36H128.42ZM136.435 25C136.302 25 136.182 24.9533 136.075 24.86C135.982 24.7533 135.935 24.6333 135.935 24.5V11.5C135.935 11.3533 135.982 11.2333 136.075 11.14C136.182 11.0467 136.302 11 136.435 11H138.555C138.888 11 139.115 11.1267 139.235 11.38L144.115 19.06V11.5C144.115 11.3533 144.162 11.2333 144.255 11.14C144.362 11.0467 144.482 11 144.615 11H147.015C147.162 11 147.282 11.0467 147.375 11.14C147.468 11.2333 147.515 11.3533 147.515 11.5V24.48C147.515 24.6267 147.468 24.7533 147.375 24.86C147.282 24.9533 147.162 25 147.015 25H144.875C144.582 25 144.362 24.8733 144.215 24.62L139.335 17.22V24.5C139.335 24.6333 139.288 24.7533 139.195 24.86C139.102 24.9533 138.982 25 138.835 25H136.435Z" fill="#0B132A"/>
<g opacity="0.7">
<path d="M32 14V14C31.9983 13.9988 32.0009 14.0019 32 14L19 0L5 14C4.99846 14.0016 5 14 5 14V14C2.94546 16.1298 1.34798 18.0178 0.999999 21C0.652018 23.9822 1.49402 27.4286 3 30C4.50598 32.5714 7.27797 33.9287 10 35C12.722 36.0713 15.215 35.8826 18 35C18.2344 34.9261 18.7656 34.9261 19 35C21.7848 35.8822 24.2781 36.0714 27 35C29.7219 33.9286 32.4941 32.5712 34 30C35.5059 27.4288 36.3478 23.982 36 21C35.6522 18.018 34.0543 16.1298 32 14ZM10 22C9.93459 22.0674 10.0354 22.912 10 23C9.96461 23.088 9.99998 22.9047 10 23C10.0239 25.4446 9.75567 27.9188 11 30C11.0283 30.0472 12.004 29.9447 12 30C11.996 30.0553 11.0348 29.9576 11 30C10.9652 30.0424 11.0523 29.9868 11 30C10.9477 30.0132 11.0498 30.0209 11 30C10.0645 29.5944 9.71664 28.7406 9 28C7.53135 26.4858 6.00134 25.1413 6 23C5.99866 20.8587 7.53322 18.5161 9 17L19 7L28 17C29.467 18.5159 31.0014 20.8586 31 23C30.9988 25.1413 29.4688 26.4858 28 28C27.2833 28.7406 26.9353 29.5944 26 30C25.95 30.0209 26.0522 30.0132 26 30C25.9478 29.9868 26.0349 30.0422 26 30C25.9653 29.9576 25.004 30.0554 25 30C24.996 29.9447 25.9717 30.0472 26 30C27.2446 27.919 26.9757 25.4446 27 23C27 22.9047 27.0356 23.0882 27 23C26.9644 22.9118 27.0656 22.0674 27 22L23 18C22.954 17.9605 22.0599 17 22 17C21.9403 17 22.0458 17.9605 22 18C21.954 18.0393 22.0108 17.9394 22 18C21.9892 18.0606 21.9705 17.9463 22 18C23.7907 21.3406 22.568 25.3524 20 28V28C19.6456 28.3614 19.4985 29.0002 19 29C18.5014 28.9998 17.3542 28.3616 17 28V28C14.4311 25.3524 13.209 21.3404 15 18C15.0294 17.9463 15.0107 18.0606 15 18C14.9893 17.9394 15.0459 18.0393 15 18C14.9541 17.9605 15.0598 17 15 17C14.9402 17 14.0459 17.9605 14 18L10 22Z" fill="#F53838"/>
</g>
</svg>
