<svg width="55" height="55" viewBox="0 0 55 55" fill="none" xmlns="http://www.w3.org/2000/svg">
<rect width="55" height="55" rx="27.5" fill="#FFECEC"/>
<path fill-rule="evenodd" clip-rule="evenodd" d="M29 27C29.9661 27 30.3168 26.6751 31 26C31.6832 25.3249 32 24.9548 32 24C32 23.0452 31.6832 21.6751 31 21C30.3168 20.3249 29.9661 20 29 20C28.0339 20 26.6832 20.3249 26 21C25.3168 21.6751 25 23.0452 25 24C25 24.9548 25.3168 25.3249 26 26C26.6832 26.6751 28.0339 27 29 27ZM23.1892 38C21.4278 38 20.3191 36.6244 21 35V35C21.4272 33.9809 21.2107 32.78 22 32C22.7893 31.22 23.9687 30.4221 25 30C26.0313 29.5779 27.8838 30 29 30C30.1162 30 30.9687 29.5779 32 30C33.0313 30.4221 34.2107 31.22 35 32C35.7893 32.78 35.5728 33.9809 36 35V35C36.6809 36.6244 35.5722 38 33.8108 38H23.1892Z" fill="#F53838"/>
</svg>
